<svg width="200" height="200" viewBox="0 0 200 200" fill="none" xmlns="http://www.w3.org/2000/svg">
<rect width="200" height="200" fill="white"/>
<g clip-path="url(#clip0_64_508)">
<path d="M100.018 200.037C155.257 200.037 200.037 155.257 200.037 100.018C200.037 44.7797 155.257 0 100.018 0C44.7797 0 0 44.7797 0 100.018C0 155.257 44.7797 200.037 100.018 200.037Z" fill="#5929E2"/>
<path d="M70.1484 64.3763C82.6782 64.3763 93.6648 70.8433 99.9849 80.6173C106.342 70.8433 117.328 64.3763 129.858 64.3763C131.659 64.3763 133.422 64.56 135.186 64.8172C132.614 47.6943 117.879 34.5398 100.022 34.5398C82.1638 34.5398 67.4293 47.6943 64.8572 64.8172C66.5842 64.56 68.3479 64.3763 70.1851 64.3763H70.1484Z" fill="#F2DE25"/>
<path d="M129.855 135.624C117.325 135.624 106.338 129.157 99.9816 119.383C93.6248 129.157 82.6382 135.624 70.1451 135.624C68.3446 135.624 66.5809 135.44 64.8171 135.183C67.3892 152.306 82.1238 165.46 99.9816 165.46C117.839 165.46 132.574 152.306 135.146 135.183C133.419 135.44 131.655 135.624 129.818 135.624H129.855Z" fill="#F2DE25"/>
</g>
<defs>
<clipPath id="clip0_64_508">
<rect width="200" height="200" fill="white"/>
</clipPath>
</defs>
</svg>
