<svg width="25" height="13" viewBox="0 0 25 13" fill="none" xmlns="http://www.w3.org/2000/svg">
<g clip-path="url(#clip0_45_745)">
<path d="M23.8689 0L1.12458 0.0121775C0.503736 0.0121775 0 0.520824 0 1.14656L0.00557642 11.8666C0.00557642 12.4932 0.510242 13.0009 1.13201 13L23.8754 12.9878C24.4972 12.9878 25.0009 12.4792 25 11.8525L24.9944 1.13345C24.9944 0.50771 24.4898 0 23.8689 0ZM2.4434 2.66033C2.4434 2.49452 2.5763 2.35963 2.74081 2.35963L7.93338 2.35682C8.09789 2.35682 8.23172 2.49078 8.23172 2.65658V3.54929C8.23172 3.71509 8.09881 3.84998 7.93431 3.84998L2.74174 3.85279C2.57723 3.85279 2.4434 3.71884 2.4434 3.55303V2.66033ZM10.0933 9.86756L2.74546 9.87131C2.58095 9.87131 2.44712 9.73735 2.44712 9.57155C2.44712 9.40575 2.58002 9.27086 2.74453 9.27086L10.0924 9.26711C10.2569 9.26711 10.3907 9.40107 10.3907 9.56687C10.3907 9.73267 10.2578 9.86756 10.0933 9.86756ZM10.0933 8.37909L2.74546 8.38284C2.58095 8.38284 2.44712 8.24888 2.44712 8.08308C2.44712 7.91728 2.58002 7.78239 2.74453 7.78239L10.0924 7.77864C10.2569 7.77864 10.3907 7.9126 10.3907 8.0784C10.3907 8.2442 10.2578 8.37909 10.0933 8.37909ZM17.0294 10.9476C16.7516 10.9476 16.5257 10.7209 16.5257 10.4408C16.5257 10.1608 16.7506 9.93313 17.0285 9.93313C17.3064 9.93313 17.5323 10.1598 17.5323 10.4399C17.5323 10.72 17.3073 10.9476 17.0294 10.9476ZM17.0285 8.97579C16.7506 8.97579 16.5248 8.7491 16.5248 8.46902C16.5248 8.18893 16.7497 7.96131 17.0276 7.96131C17.3055 7.96131 17.5313 8.188 17.5313 8.46808C17.5313 8.74816 17.3064 8.97579 17.0285 8.97579ZM17.0276 7.00396C16.7497 7.00396 16.5238 6.77727 16.5238 6.49719C16.5238 6.21711 16.7488 5.98948 17.0267 5.98948C17.3045 5.98948 17.5304 6.21617 17.5304 6.49625C17.5304 6.77634 17.3055 7.00396 17.0276 7.00396ZM17.0267 5.03214C16.7488 5.03214 16.5229 4.80545 16.5229 4.52536C16.5229 4.24528 16.7478 4.01765 17.0257 4.01765C17.3036 4.01765 17.5295 4.24434 17.5295 4.52443C17.5295 4.80451 17.3045 5.03214 17.0267 5.03214ZM17.0257 3.06031C16.7478 3.06031 16.522 2.83362 16.522 2.55354C16.522 2.27345 16.7469 2.04583 17.0248 2.04583C17.3027 2.04583 17.5285 2.27252 17.5285 2.5526C17.5285 2.83268 17.3036 3.06031 17.0257 3.06031ZM21.1086 2.11234C21.3502 2.11234 21.5463 2.30999 21.5463 2.55354L21.5501 10.5036C21.5501 10.7472 21.354 10.9448 21.1123 10.9448C20.8707 10.9448 20.6746 10.7472 20.6746 10.5036L20.6708 2.55354C20.6708 2.30999 20.8669 2.11234 21.1086 2.11234Z" fill="#5929E2"/>
</g>
<defs>
<clipPath id="clip0_45_745">
<rect width="25" height="13" fill="white"/>
</clipPath>
</defs>
</svg>
