<svg width="20" height="24" viewBox="0 0 20 24" fill="none" xmlns="http://www.w3.org/2000/svg">
<path d="M1.69398 15.7648L1.0632 17.7572L1.06446 17.7585C0.787622 18.6294 1.43737 19.5167 2.34879 19.5167H17.0111C17.9225 19.5167 18.571 18.6294 18.2954 17.7585L17.6646 15.766C17.1413 14.1141 16.8746 12.3926 16.8746 10.6596V8.20517C16.8746 4.22536 13.6524 1 9.6793 1C5.70624 1 2.48405 4.22536 2.48405 8.2039V10.6584C2.48405 12.3913 2.21732 14.1128 1.69398 15.7648Z" stroke="#2F2F2F" stroke-width="1.7" stroke-miterlimit="10"/>
<path d="M12.573 19.848C12.3712 21.1565 11.1524 22.1626 9.67973 22.1626C8.20705 22.1626 6.98962 21.1565 6.78649 19.848" stroke="#2F2F2F" stroke-width="1.7" stroke-miterlimit="10" stroke-linecap="round"/>
</svg>
