<svg width="21" height="21" viewBox="0 0 21 21" fill="none" xmlns="http://www.w3.org/2000/svg">
<path d="M11.71 1.29C11.617 1.19627 11.5064 1.12188 11.3846 1.07111C11.2627 1.02034 11.132 0.994202 11 0.994202C10.868 0.994202 10.7373 1.02034 10.6154 1.07111C10.4936 1.12188 10.383 1.19627 10.29 1.29L1.29 10.29C1.19627 10.383 1.12188 10.4936 1.07111 10.6154C1.02034 10.7373 0.994202 10.868 0.994202 11C0.994202 11.132 1.02034 11.2627 1.07111 11.3846C1.12188 11.5064 1.19627 11.617 1.29 11.71C1.38344 11.8027 1.49426 11.876 1.61609 11.9258C1.73793 11.9755 1.86839 12.0008 2 12H3V19C3 19.5304 3.21071 20.0391 3.58579 20.4142C3.96086 20.7893 4.46957 21 5 21H17C17.5304 21 18.0391 20.7893 18.4142 20.4142C18.7893 20.0391 19 19.5304 19 19V12H20C20.2652 12 20.5196 11.8946 20.7071 11.7071C20.8946 11.5196 21 11.2652 21 11C21.0008 10.8684 20.9755 10.7379 20.9258 10.6161C20.876 10.4943 20.8027 10.3834 20.71 10.29L11.71 1.29ZM5 19V9.41L11 3.41L17 9.41V19H5Z" fill="#F2DE25"/>
</svg>
