<svg width="26" height="26" viewBox="0 0 26 26" fill="none" xmlns="http://www.w3.org/2000/svg">
<path d="M18.6623 3.24999C18.5338 3.25315 18.406 3.27032 18.2812 3.30118L5.07812 6.77868C4.55625 6.91685 4.0944 7.22305 3.76397 7.64998C3.43353 8.0769 3.25291 8.60076 3.25 9.14061V20.3125C3.25 21.6491 4.35094 22.75 5.6875 22.75H20.3125C21.6491 22.75 22.75 21.6491 22.75 20.3125V9.74999C22.75 8.41343 21.6491 7.31249 20.3125 7.31249H9.44531L18.6875 4.87499V6.49999H20.3125V4.87499C20.3125 3.96093 19.5349 3.23699 18.6623 3.24999ZM5.6875 8.93749H20.3125C20.7724 8.93749 21.125 9.29011 21.125 9.74999V20.3125C21.125 20.7724 20.7724 21.125 20.3125 21.125H5.6875C5.22763 21.125 4.875 20.7724 4.875 20.3125V9.74999C4.875 9.29011 5.22763 8.93749 5.6875 8.93749ZM18.2812 13.8125C17.958 13.8125 17.648 13.9409 17.4195 14.1695C17.1909 14.398 17.0625 14.708 17.0625 15.0312C17.0625 15.3545 17.1909 15.6645 17.4195 15.893C17.648 16.1216 17.958 16.25 18.2812 16.25C18.6045 16.25 18.9145 16.1216 19.143 15.893C19.3716 15.6645 19.5 15.3545 19.5 15.0312C19.5 14.708 19.3716 14.398 19.143 14.1695C18.9145 13.9409 18.6045 13.8125 18.2812 13.8125Z" fill="#F2DE25"/>
</svg>
