<svg width="12" height="22" viewBox="0 0 12 22" fill="none" xmlns="http://www.w3.org/2000/svg">
<path d="M0.869637 4.86713C2.91359 4.86713 4.7058 5.92207 5.73677 7.51648C6.77373 5.92207 8.56594 4.86713 10.6099 4.86713C10.9036 4.86713 11.1913 4.8971 11.479 4.93906C11.0594 2.14585 8.65585 0 5.74276 0C2.82968 0 0.42608 2.14585 0.00650024 4.93906C0.288218 4.8971 0.575931 4.86713 0.875631 4.86713H0.869637Z" fill="#F2DE25"/>
<path d="M10.6094 16.6274C8.56543 16.6274 6.77322 15.5724 5.73626 13.978C4.6993 15.5724 2.90709 16.6274 0.869131 16.6274C0.575425 16.6274 0.287712 16.5974 0 16.5554C0.41958 19.3487 2.82318 21.4945 5.73626 21.4945C8.64935 21.4945 11.0529 19.3487 11.4725 16.5554C11.1908 16.5974 10.9031 16.6274 10.6034 16.6274H10.6094Z" fill="#F2DE25"/>
</svg>
