<svg width="20" height="20" viewBox="0 0 20 20" fill="none" xmlns="http://www.w3.org/2000/svg">
<path d="M6.66667 11.6667C6.43056 11.6667 6.2325 11.5867 6.0725 11.4267C5.91306 11.2672 5.83333 11.0694 5.83333 10.8333C5.83333 10.5972 5.91306 10.3992 6.0725 10.2392C6.2325 10.0797 6.43056 10 6.66667 10C6.90278 10 7.10083 10.0797 7.26083 10.2392C7.42028 10.3992 7.5 10.5972 7.5 10.8333C7.5 11.0694 7.42028 11.2672 7.26083 11.4267C7.10083 11.5867 6.90278 11.6667 6.66667 11.6667ZM10 11.6667C9.76389 11.6667 9.56611 11.5867 9.40667 11.4267C9.24667 11.2672 9.16667 11.0694 9.16667 10.8333C9.16667 10.5972 9.24667 10.3992 9.40667 10.2392C9.56611 10.0797 9.76389 10 10 10C10.2361 10 10.4342 10.0797 10.5942 10.2392C10.7536 10.3992 10.8333 10.5972 10.8333 10.8333C10.8333 11.0694 10.7536 11.2672 10.5942 11.4267C10.4342 11.5867 10.2361 11.6667 10 11.6667ZM13.3333 11.6667C13.0972 11.6667 12.8994 11.5867 12.74 11.4267C12.58 11.2672 12.5 11.0694 12.5 10.8333C12.5 10.5972 12.58 10.3992 12.74 10.2392C12.8994 10.0797 13.0972 10 13.3333 10C13.5694 10 13.7672 10.0797 13.9267 10.2392C14.0867 10.3992 14.1667 10.5972 14.1667 10.8333C14.1667 11.0694 14.0867 11.2672 13.9267 11.4267C13.7672 11.5867 13.5694 11.6667 13.3333 11.6667ZM4.16667 18.3333C3.70833 18.3333 3.31583 18.1703 2.98917 17.8442C2.66306 17.5175 2.5 17.125 2.5 16.6667V5.00001C2.5 4.54167 2.66306 4.14945 2.98917 3.82334C3.31583 3.49667 3.70833 3.33334 4.16667 3.33334H5V2.47917C5 2.24306 5.07972 2.04862 5.23917 1.89584C5.39917 1.74306 5.59722 1.66667 5.83333 1.66667C6.06944 1.66667 6.2675 1.74639 6.4275 1.90584C6.58694 2.06584 6.66667 2.26389 6.66667 2.50001V3.33334H13.3333V2.47917C13.3333 2.24306 13.4133 2.04862 13.5733 1.89584C13.7328 1.74306 13.9306 1.66667 14.1667 1.66667C14.4028 1.66667 14.6006 1.74639 14.76 1.90584C14.92 2.06584 15 2.26389 15 2.50001V3.33334H15.8333C16.2917 3.33334 16.6842 3.49667 17.0108 3.82334C17.3369 4.14945 17.5 4.54167 17.5 5.00001V16.6667C17.5 17.125 17.3369 17.5175 17.0108 17.8442C16.6842 18.1703 16.2917 18.3333 15.8333 18.3333H4.16667ZM4.16667 16.6667H15.8333V8.33334H4.16667V16.6667Z" fill="#5929E2"/>
</svg>
